<mxfile host="65bd71144e">
    <diagram id="0Rk23NjgDeTyCK7oHo9y" name="Page-1">
        <mxGraphModel dx="44" dy="-1618" grid="1" gridSize="10" guides="1" tooltips="1" connect="1" arrows="1" fold="1" page="1" pageScale="1" pageWidth="850" pageHeight="1100" math="0" shadow="0">
            <root>
                <mxCell id="0"/>
                <mxCell id="1" parent="0"/>
                <mxCell id="2" value="Share Structure" style="swimlane;whiteSpace=wrap;html=1;shadow=0;dashed=0;strokeWidth=1;align=center;verticalAlign=top;fontFamily=Helvetica;fontSize=12;fontColor=#FFFFFF;fillColor=#660000;movable=1;resizable=1;rotatable=1;deletable=1;editable=1;locked=0;connectable=1;strokeColor=#666666;swimlaneFillColor=#FFFFFF;" parent="1" vertex="1">
                    <mxGeometry x="1170" y="3600" width="400" height="200" as="geometry"/>
                </mxCell>
                <mxCell id="3" value="" style="shape=table;startSize=0;container=1;collapsible=0;childLayout=tableLayout;fontSize=13;align=left;spacingLeft=5;spacing=0;" parent="2" vertex="1">
                    <mxGeometry x="19.999999999999893" y="60" width="360" height="90" as="geometry"/>
                </mxCell>
                <mxCell id="4" value="" style="shape=tableRow;horizontal=0;startSize=0;swimlaneHead=0;swimlaneBody=0;strokeColor=inherit;top=0;left=0;bottom=0;right=0;collapsible=0;dropTarget=0;fillColor=none;points=[[0,0.5],[1,0.5]];portConstraint=eastwest;fontSize=13;align=left;spacingLeft=5;spacing=0;" parent="3" vertex="1">
                    <mxGeometry width="360" height="30" as="geometry"/>
                </mxCell>
                <mxCell id="5" style="shape=partialRectangle;html=1;whiteSpace=wrap;connectable=0;strokeColor=inherit;overflow=hidden;fillColor=#660000;top=0;left=0;bottom=0;right=0;pointerEvents=1;fontSize=13;align=left;spacingLeft=25;spacing=0;fontColor=#FFFFFF;fontStyle=1" parent="4" vertex="1">
                    <mxGeometry width="25" height="30" as="geometry">
                        <mxRectangle width="25" height="30" as="alternateBounds"/>
                    </mxGeometry>
                </mxCell>
                <mxCell id="6" value="Name" style="shape=partialRectangle;html=1;whiteSpace=wrap;connectable=0;strokeColor=inherit;overflow=hidden;fillColor=#660000;top=0;left=0;bottom=0;right=0;pointerEvents=1;fontSize=13;align=left;spacingLeft=25;spacing=0;fontColor=#FFFFFF;fontStyle=1" parent="4" vertex="1">
                    <mxGeometry x="25" width="145" height="30" as="geometry">
                        <mxRectangle width="145" height="30" as="alternateBounds"/>
                    </mxGeometry>
                </mxCell>
                <mxCell id="7" value="Role" style="shape=partialRectangle;html=1;whiteSpace=wrap;connectable=0;strokeColor=inherit;overflow=hidden;fillColor=#660000;top=0;left=0;bottom=0;right=0;pointerEvents=1;fontSize=13;align=left;spacingLeft=5;spacing=0;fontColor=#FFFFFF;fontStyle=1" parent="4" vertex="1">
                    <mxGeometry x="170" width="190" height="30" as="geometry">
                        <mxRectangle width="190" height="30" as="alternateBounds"/>
                    </mxGeometry>
                </mxCell>
                <mxCell id="8" value="" style="shape=tableRow;horizontal=0;startSize=0;swimlaneHead=0;swimlaneBody=0;strokeColor=inherit;top=0;left=0;bottom=0;right=0;collapsible=0;dropTarget=0;fillColor=none;points=[[0,0.5],[1,0.5]];portConstraint=eastwest;fontSize=13;align=left;spacingLeft=5;spacing=0;" parent="3" vertex="1">
                    <mxGeometry y="30" width="360" height="30" as="geometry"/>
                </mxCell>
                <mxCell id="9" style="shape=partialRectangle;html=1;whiteSpace=wrap;connectable=0;strokeColor=inherit;overflow=hidden;fillColor=none;top=0;left=0;bottom=0;right=0;pointerEvents=1;fontSize=13;align=left;spacingLeft=64;spacing=0;" parent="8" vertex="1">
                    <mxGeometry width="25" height="30" as="geometry">
                        <mxRectangle width="25" height="30" as="alternateBounds"/>
                    </mxGeometry>
                </mxCell>
                <mxCell id="10" value="Duncan Grable" style="shape=partialRectangle;html=1;whiteSpace=wrap;connectable=0;strokeColor=inherit;overflow=hidden;fillColor=none;top=0;left=0;bottom=0;right=0;pointerEvents=1;fontSize=13;align=left;spacingLeft=15;spacing=0;" parent="8" vertex="1">
                    <mxGeometry x="25" width="145" height="30" as="geometry">
                        <mxRectangle width="145" height="30" as="alternateBounds"/>
                    </mxGeometry>
                </mxCell>
                <mxCell id="11" value="" style="shape=partialRectangle;html=1;whiteSpace=wrap;connectable=0;strokeColor=inherit;overflow=hidden;fillColor=none;top=0;left=0;bottom=0;right=0;pointerEvents=1;fontSize=13;align=left;spacingLeft=5;spacing=0;" parent="8" vertex="1">
                    <mxGeometry x="170" width="190" height="30" as="geometry">
                        <mxRectangle width="190" height="30" as="alternateBounds"/>
                    </mxGeometry>
                </mxCell>
                <mxCell id="12" value="" style="shape=tableRow;horizontal=0;startSize=0;swimlaneHead=0;swimlaneBody=0;strokeColor=inherit;top=0;left=0;bottom=0;right=0;collapsible=0;dropTarget=0;fillColor=none;points=[[0,0.5],[1,0.5]];portConstraint=eastwest;fontSize=13;align=left;spacingLeft=5;spacing=0;" parent="3" vertex="1">
                    <mxGeometry y="60" width="360" height="30" as="geometry"/>
                </mxCell>
                <mxCell id="13" style="shape=partialRectangle;html=1;whiteSpace=wrap;connectable=0;strokeColor=inherit;overflow=hidden;fillColor=none;top=0;left=0;bottom=0;right=0;pointerEvents=1;fontSize=13;align=left;spacingLeft=64;spacing=0;" parent="12" vertex="1">
                    <mxGeometry width="25" height="30" as="geometry">
                        <mxRectangle width="25" height="30" as="alternateBounds"/>
                    </mxGeometry>
                </mxCell>
                <mxCell id="14" value="Lewis Madden" style="shape=partialRectangle;html=1;whiteSpace=wrap;connectable=0;strokeColor=inherit;overflow=hidden;fillColor=none;top=0;left=0;bottom=0;right=0;pointerEvents=1;fontSize=13;align=left;spacingLeft=15;spacing=0;" parent="12" vertex="1">
                    <mxGeometry x="25" width="145" height="30" as="geometry">
                        <mxRectangle width="145" height="30" as="alternateBounds"/>
                    </mxGeometry>
                </mxCell>
                <mxCell id="15" value="" style="shape=partialRectangle;html=1;whiteSpace=wrap;connectable=0;strokeColor=inherit;overflow=hidden;fillColor=none;top=0;left=0;bottom=0;right=0;pointerEvents=1;fontSize=13;align=left;spacingLeft=5;spacing=0;" parent="12" vertex="1">
                    <mxGeometry x="170" width="190" height="30" as="geometry">
                        <mxRectangle width="190" height="30" as="alternateBounds"/>
                    </mxGeometry>
                </mxCell>
                <mxCell id="16" value="" style="rounded=0;whiteSpace=wrap;html=1;strokeColor=#660000;aspect=fixed;" parent="2" vertex="1">
                    <mxGeometry x="30" y="132" width="10" height="10" as="geometry"/>
                </mxCell>
                <mxCell id="17" value="" style="rounded=0;whiteSpace=wrap;html=1;strokeColor=#660000;aspect=fixed;" parent="2" vertex="1">
                    <mxGeometry x="30" y="100.5" width="10" height="10" as="geometry"/>
                </mxCell>
                <mxCell id="18" value="" style="rounded=0;whiteSpace=wrap;html=1;strokeColor=#660000;aspect=fixed;" parent="2" vertex="1">
                    <mxGeometry x="30" y="39" width="10" height="10" as="geometry"/>
                </mxCell>
                <mxCell id="19" value="Owner" style="html=1;shadow=0;dashed=0;shape=mxgraph.bootstrap.rrect;rSize=5;strokeColor=none;strokeWidth=1;fillColor=#660000;fontColor=#ffffff;whiteSpace=wrap;align=left;verticalAlign=middle;fontStyle=0;fontSize=12;spacingLeft=10;spacingRight=20;" parent="2" vertex="1">
                    <mxGeometry x="200" y="92.5" width="125" height="25" as="geometry"/>
                </mxCell>
                <mxCell id="20" value="" style="shape=triangle;direction=south;fillColor=#ffffff;strokeColor=none;perimeter=none;" parent="19" vertex="1">
                    <mxGeometry x="1" y="0.5" width="10" height="5" relative="1" as="geometry">
                        <mxPoint x="-17" y="-2.5" as="offset"/>
                    </mxGeometry>
                </mxCell>
                <mxCell id="21" value="Viewer" style="html=1;shadow=0;dashed=0;shape=mxgraph.bootstrap.rrect;rSize=5;strokeColor=none;strokeWidth=1;fillColor=#660000;fontColor=#ffffff;whiteSpace=wrap;align=left;verticalAlign=middle;fontStyle=0;fontSize=12;spacingLeft=10;spacingRight=20;" parent="2" vertex="1">
                    <mxGeometry x="200" y="123" width="125" height="25" as="geometry"/>
                </mxCell>
                <mxCell id="22" value="" style="shape=triangle;direction=south;fillColor=#ffffff;strokeColor=none;perimeter=none;" parent="21" vertex="1">
                    <mxGeometry x="1" y="0.5" width="10" height="5" relative="1" as="geometry">
                        <mxPoint x="-17" y="-2.5" as="offset"/>
                    </mxGeometry>
                </mxCell>
                <mxCell id="23" value="" style="shape=image;verticalLabelPosition=bottom;labelBackgroundColor=default;verticalAlign=top;aspect=fixed;imageAspect=0;image=data:image/png,iVBORw0KGgoAAAANSUhEUgAAARQAAAByCAYAAACSqi6KAAAAAXNSR0IArs4c6QAAAARnQU1BAACxjwv8YQUAAAAJcEhZcwAAITcAACE3ATNYn3oAAAASdEVYdFNvZnR3YXJlAEdyZWVuc2hvdF5VCAUAAAfXSURBVHhe7d1raNZlGMdxe9M5KMgyLag0qNQoCspT+abRgcCK3nRCGiksTQWTDkshLYupi0nURDdZZhJtJp0mjrk07bA5PFQmQycTrGbq1LQXHf4997rEZtfW82zXvZ7/fX8/8Hsje9xz3/9rP7fb5/lvQAIARigUAGYoFABmKBQAZigUAGYoFABmKBQAZigUAGYoFABmKBQAZigUwNiJI0eSnevXm2bf9u3yt+c3CgUwsnrOnKSkoCCZeMYAL5l51ZXJssLCpH33bvmM+YdCAQy4MtFKwEdeHjc2OdHRIZ85v6S+UI4fOtT5LeGvx47JnwD9qz/L5GQWP/igfPb8ktpC2VhZmRTfMLLLJs8bMzpZX14uHwH0j5lXX9VlDvsrTdXV8gzyRyoLpez++9UNPpmFd98tHwn4tfXDD9UZ7I/MGztGnkX+SF2hLJ88Wd3c09NUUyOPALr6YdeupGzChGTWNcPU2Ykp0y4blLx0263J2tJS2Z2+SVWhfFtXp26KllnDhia/Hj0qjwT+1rxmTVJ00YXqzMQedxbUV6kqlM0rVqgb0V3cYS3wT6+OH6/OCvk7LZs3y071TqoK5aP589VN6C6fLlggjwSS5Mt331XnhJzK3FG3yW71TqoKJdf/nrP4Fg7hqCoqUueEdM3R9nbZsdxRKIjG4gceUOeEdE3btm2yY7mjUBCNusWL1TkhpzL98iGyW71DoSAarY2N6pyQU3E/FvYFhYKoLJ04UZ0VMiCZeslA2aXeo1AQna9WrUqeGXq1OjOxZuWMGbI7fUOhIEruniU7ams7ZyTmfLFyZecrh61QKADMUCgAzFAoAMxQKADMUCiI2j9vBB1jrFEoiJp7A6k2OzFkwV13yS7YoVAQtY0VFersxJC3Hn5YdsEOhYKobVm9Wp2dGPL2U0/JLtihUBC17xsa1NmJIdXFxbILdigURM29VV+bnRhSu3Ch7IIdCgVRO9jWps5ODNlQUSG7YIdCQdTcjcy12Ykh7vzIGoWC6GmzE0N2NjTIDtihUBC9wrPOVOcn9Ozbvl12wA6Fgug9PehSdX5Cjzs/skahIHrPXXetOj+hx90TxhqFgujNHT1KnZ/Q4wOFgugtuucedX5Cjjs38oFCQfTeeuQRdX5Cjjs38qFPhdKxf7/6lmhf6U2haH+Prxw/fFh2BmmyYupUdX5CzrPXXSurt9WrQql/883khRHD1Scae2bfdGPn72BGetTMnq1ey5Azb8xoWb2tnAuFIskuJXfeKTuGfLe2tFS9hiGn9N57ZfW2ciqU1++7T31yRE9TTY3sHPLZ58uXq9cv5JQ/+qis3lbWhbJj7Vr1iZHuM2vY0M73iiC/Na9Zo16/kOPOjXzIulA+KSlRnxjpOe6wFvnNvadFu3Yhx50b+ZB1oZRNmKA+MdJz3D1Lkd/atm5Vr13IcedGPmRdKO63smtPjPScTVVVsoPIVz/v3ateu5Djzo18yLpQGpYsUZ8Y6TnujmDIbyc6OtRrF3KaP/hAVm8r60JpbWpSnxjpPiUFBbJ7yHfa9Qs57l66PmRdKE6MryjsS/juJD2ePOds9RqGGndu5ENOheLk+vL3WPPxa6/JjiENpg2+TL2OoeZAa6us3FbOheK0bNqULCss5FWzp8W9Dd4dXu+orZWdQlo8P/x69ZqGGl/vO+tVofxfeLcxfJk3dow6Q6HGFwoFyIjpbSVPnnuOrNoehQJkLHn8cXWGQsz0IYNl1fYoFCDjnWnT1BkKMc+PGC6rtkehABm5zlaa8/K4sbJqexQKkBHTPVHceZEvFAqQsbGyUp2hEOPOi3yhUIAMdzMsbYZCjDsv8oVCATK+q69XZyjE+LoXikOhABl7m5vVGQoxtYsWyartUShARvuePeoMhZgNFRWyansUCpBx/NAhdYZCjM+bp1MoQMaff/yhzlCI2VlfL6u2R6EAYtJ556pzFFr2btkiK7ZHoQBixhWXq3MUWtp375YV26NQAFF8w0h1jkLLLwcPyortUSiAmH/H7eochRZ3XuQLhQKIGO6JMun882S1flAogFjy2GPqHIUUd07kE4UCiBh+q4M7J/KJQgFEzYsvqnMUUl65fZys1g8KBRDu91BrcxRSfN4LxaFQAPHZ0qXqHIUUd07kE4UCiMb331fnKKS8PWWKrNYPCgUQ39bVqXMUUqqLi2W1flAogGhtalLnKKS4cyKfKBRA/NjSos5RSHHnRD6lqlByvTP5+vJyeSTw344eOKDOUUhx50Q+papQvn7vPXWTuov7FhbI1u+//abOUUj5Zt06Wa0fqSoUd9/PyRecr27U6SkpKJBHAdmbO3qUOk+h5MSRI7JSP1JVKI77MUbbqNPTtm2bPALIXq7ndGlKf/wjm7pCcTZVVakbdjLrysrkI4Hc7KitVWcqhPTHf1KkslAcdz5SOWlSMueWmzs369Xx45NVM2cmP7W0yEcAvbPsiSf+9cWY9kwfMlhW51dqCwXwacrAi9UvzLSmqbpaVuYXhQJ0I4TzlBdGDE/2NDbKivyjUIAe7NqwIakqKur8kXrqJQPVL9p8iyuRNx566H95YSeFAsAMhQLADIUCwAyFAsAMhQLADIUCwAyFAsAMhQLADIUCwAyFAsAMhQLADIUCwAyFAsAMhQLADIUCwAyFAsAMhQLADIUCwAyFAsBIkvwFaON+qIGSICQAAAAASUVORK5CYII=;" parent="2" vertex="1">
                    <mxGeometry x="50" y="34.5" width="46" height="19" as="geometry"/>
                </mxCell>
                <mxCell id="24" value="" style="shape=image;verticalLabelPosition=bottom;labelBackgroundColor=default;verticalAlign=top;aspect=fixed;imageAspect=0;image=data:image/png,iVBORw0KGgoAAAANSUhEUgAAAUUAAACWCAYAAABJqZpoAAAAAXNSR0IArs4c6QAAAARnQU1BAACxjwv8YQUAAAAJcEhZcwAAITcAACE3ATNYn3oAAAASdEVYdFNvZnR3YXJlAEdyZWVuc2hvdF5VCAUAAAzpSURBVHhe7d1pjFbVGcBxbXFt3erWam3dd1Bra+sK0bhFxS3Gb4aqVNRSsVbRiJ0YVyLIYqgfNNEP1SAYJ4rIFkUCKk6lg4KgCIIgVjYpIIyAetrn9Vw9wJmZdzn33HPO/f+SJwbmnbsyf4dhzp3tFADge0QRAAxEEQAMRBEADEQRAAxEEQAMRBEADEQRAAxEEQAMRBEADEQRAAxEEQAMRBEADEQRAAxEEQAMRBEADEQRAAxEEQAMRBEADEQRAAxEEQAMRBEADEQRAAxEEQAMRBEADEQRAAxEEQAMRBEADEQRAAxEEQAMRBEADEQRAAxEEQAMRBEADEFEccXChWr6yJFq/KOPqo/eeEO1rVun31JubWvXqrmTJ6txgwapGc3NatXixfotQLllzZgwZIj6uKVFfbN5s35L4wqN4muPP67uPv441Wv77baY63bcQd1/+mnqvXHj9CvLRc77vtNOVdfu0GWbazOgW1c1fvBg/UqgXCSCtmbctNeeamjPnmr+9On6lfUrJIrymeA/rr56mxOzzUv336/fqxzkfG3XYet55Lzz9HsA6fuktVUNv+wy68fC1tPc1KTfqz7eo7h8wQLriXQ0I666Sn377bd6C2mS85PztJ1/RwOkrmXUqMpngrY//+2NfNZYL+8fVXcde4z1JDqbx668Un3z9dd6K2mR85Lzs513Z/PsrbfqrQDpkSDa/txXM28/95zeSm28RrHavxq2N49dcYXTL6iGQM5Hzst2vtXOlCef1FsD0tFIELORf4SpldcoDjihm/XAa5nhl1+uNm/cqLcYNzmPYVV+naSjubvr8XqLQBpcBFHmn3376i1Wz1sU13z+ufWg65lhl16qNn/1ld5ynOT45Txs51fP/Pezz/SWgbi5CqLM4Asv1FutnrcozpowwXrQ9Y58IXVTW5veelw2btighl5yifW86p2ZY8borQPxchlEmTuOOFxvuXreoij/TG476EZmyMUXq43r1+s9xEGOV47bdj6NTKPfhgAUzXUQs6mVtyjOefVV6wE3OkMuukh99eWXei9hk+OU47WdR6Pz7iuv6L0A8ckriHcefZTeQ/W8RXH96tXWg3Yx8nUDWRIXMjk+OU7b8buYL1et0nsC4pJXEGXq+X5Fb1EUsnTPduAuZvAFF6gNa9boPYVFjkuOz3bcLkaWBAIxyjOIMs/dcYfeU/W8RvGtZ56xHrirkaVv8hlpSOR45Lhsx+tqyrpGHHHLO4h/O+TgyoMjauU1iqLRb1TubB4591y1/osv9N6KJcchx2M7TldTtrXhSEPeQZSZ+tRTem+18R5FeTSY7QRczsBzzlHrVq7UeyyG7F+Ow3Z8rkbWSgOx8RHEJ3v10nurnfcoipbRo1WvH21vPRlXM/Dss9W6FSv0Hv2S/cr+bcflamStdOoPyUB6fASx0U8WComi+Nfzz6s/dvmx9aRczUM9eqg1y5bpPfoh+5P92o7H1VTWgCf6cAykK4YgisKiKN554QXrg1RdzkPdu1eWGPog+3moR3frcbgaWSud2kMxkL5YgigKjaKQx+xft9OO1pN0NQ92P0utznltsGz/wbPOtO7f1VTWfCfyMAyUR0xBFIVHUfz7xRfV9TvvZD1ZV/PAmWeo1UuX6j26JduV7dv262pkrXTsD8FA+cQWRBFEFEXrSy+p3rvuYj1pV/PAGaerVUuW6D26IdvL85vSZSprvDds0HsE4hBjEEUwURQzX35Z/eknu1pP3tXI6g9XPxVPtiPbs+3H1cha6dgeegHEGkQRVBTFu2PHqht2+6n1Iria+079g1qxaJHeY31W/v/9ZTu27bsaWSsdy8MugEzMQRTBRVHIsrU+u+9mvRiu5t7fn1LXEiAh7yfvb9uuq5G10qE/5ALYWuxBFEFGUcwaP17duOce1oviau495XeVny5YC3m9vJ9te65G1kqH+nALoD0pBFEEG0Uxe+LEmn+0Ya3T9NuT1bL58/UeOyavk9fbtuNqKmu3A3uoBdCZVIIogo6imD1pkrp5759ZL5KraTr5N+rzefP0Hu3k7fI62/u7GlkrHcrDLIBqpRREEXwUhTy1++Z99rZeLFdzz0knqv98+KHe45bk9+XttvdzNZW12gU/xAKoVWpBFFFEUcx57TX15333sV40V3PPiSeoz+bO1Xv8jvxaft/2elcja6WLengFUK8UgyiiiaL44PXXVd/997NePFczoFtXtXTOnMr+5L/ya9vrXI2slfb90AqgUakGUUQVRfHBlCnqLz/f33oRXY38cPml779f+a/t7a5G1kr7elgF4ErKQRTRRVHMmzpV3XLAL6wX09Xcffxx1t93NZW12PwAe0Qm9SCKKKMo5k2bpvodeID1ooY+slY6r4dTAHkpQxBFtFEU8998U9160C+tFzfUqay9dvxQCiBvZQmiiDqKYv5bb6m//uog60UObWSttKuHUSBfi2bMUGuXL9e/KrcyBVFEH0Wx4O231W0H/9p6sUMZWSstD5FAuJqbmtSg889XffbY/fv79veTTlRP33CDmjVhgn5VuZQtiCKJKIqPW1rUbYccbL3oRY+sla734RPI39zJk6v6hzWJY2crn1JSxiCKZKIoFr7zjrr9sEOtF7+okbXStT50Av7I49ls96296bvfvpVYpK6sQRRJRVHI14JuP/ww603wPbJWutqHTcC/ScOHW+9bNZNyGMscRJFcFMUnra2q/5FHWG+Gr5G10mX6q1Zsln30kbqxwScwpRjGsgdRJBlFsXjmTNX/qCOtNyXvkbXS7T1cAmEY1b+/9d7VOimFkSB+J9koiiXvvafuOuZo683Ja2St9NYPlUB45IPTdv/qmRTCSBB/kHQUxZJZs9Rdxx5jvUmup7JmWj9MAmFzvYwz5jASxC0lH0VRebhDzmuZZfuyH8TBdg8bnRjDSBC3lXwUfQQxG8IYjzuPPsp6DxudmMJIEO2SjqLPIGZDGOMwtGdP6/1zMTGEkSC2L9koFhHEbAhj+J7t189671xNyGEkiB1LMopFBjEbwhg2efRc7113sd47VxNiGAli55KLYghBzIYwhm3isGHW++ZyQgojQaxOUlEMKYjZEMawPXHNNdb75nJCCCNBrF4yUQwxiNkQxrDJB7PtvrmcIsNIEGuTRBRDDmI2hDFsqYaRINYu+ijGEMRsCGPYUgsjQaxP1FGMKYjZEMawpRJGgli/aKMYYxCzIYxhiz2MBLExUUbRRxB9bJ8whivWMBLExkUXRV9B9LkfhCm2MBJEN6KKou9QEUbEEkaC6E40USwqUIQRoYeRILoVRRSLDhNhRKhhJIjuBR/FUIJEGBFaGAliPoKOYmghIowIJYwEMT/BRjHUABFGFB1GgpivIKMYengII4oKI0HMX3BRjCU4hBG+w0gQ/QgqirGFhjDCVxgJoj/BRDHWwBBG+Ahj3kMQfxBEFGMPC2FEzGEkiFsqPIqpBIUwIsYwEsRtFRrF1EJCGBFTGAmiXWFRTDUghBExhJEgtq+QKKYeDsKIkMNIEDvmPYqrFi8uRTB8hVGuJ8IUYhgJYue8R/GZW26x3ixXE9JnUD7CKNcT4QopjASxOl6j+MGUKdab5WpCCmLGRxjluiJcIYSRIFbPaxSH9uxpvWEuJsQgZvIOo1xXhK3IMBLE2niL4jebN6ub9trTetManZCDmMkzjH322F19vWmT3hNCVUQYCWLtvEXx45YW601rdGIIYibPMM6bNk3vBSHzGUaCWB9vUZwwZIj1xjUyMQUxk1cYxw8erPeA0PkII0Gsn7cozmhutt68eifGIGbyCOP0kSP11hGDPMNIEBvjLYry/XS2G1jPxBzEjOswrli4UG8ZscgjjASxcd6iKAZ062q9kbVMCkHMuAqjbANxchlGguiG1yg2NzVZb2a1k1IQMy7CKF+vRbxchJEguuM1iqLfgQdYb2pnk2IQM42Ekc8S09BIGAmiW96jOHPMGOuN7WhSDmKm3jB+0tqqt4DY1RNGguie9yiKeVOnqut33sl6k7ceuenLFyzQ75m2lYsWqad697Zeh61HPuOW/8EgLaP697feb9vIl6PgXiFRFG3r1qmn+/Sx3uxsxj78sH51ubSMHq3uO+1Ude0OXba5JvKPVXwwpE1+SNXthx26zb3P5uEePdTcyZP1q+FaYVHMfPHpp5UbPOWJJ9TYgQMr388ofyVcv3q1fkV5ta1dW7k24wYNqlwXHhNWHpva2ipfUpG/DUwcNky9OmKEmj1pUmn+1lSkwqMIACEhigBgIIoAYCCKAGAgigBgIIoAYCCKAGAgigBgIIoAYCCKAGAgigBgIIoAYCCKAGAgigBgIIoAYCCKAGAgigBgIIoAYCCKAGAgigBgIIoAYCCKAGAgigBgIIoAYCCKAGAgigBgIIoA8D2l/gfJW2O+rEIC2wAAAABJRU5ErkJggg==;" parent="2" vertex="1">
                    <mxGeometry x="330" y="170" width="43.34" height="20" as="geometry"/>
                </mxCell>
                <mxCell id="25" value="" style="html=1;shadow=0;dashed=0;shape=mxgraph.bootstrap.rect;fillColor=#222222;strokeColor=none;whiteSpace=wrap;rounded=0;fontSize=12;fontColor=#000000;align=center;movable=1;resizable=1;rotatable=1;deletable=1;editable=1;locked=0;connectable=1;" parent="1" vertex="1">
                    <mxGeometry x="1130" y="3325" width="1060" height="63" as="geometry"/>
                </mxCell>
                <mxCell id="26" value="Atlas" style="html=1;shadow=0;dashed=0;fillColor=#000000;strokeColor=none;shape=mxgraph.bootstrap.rect;fontColor=#FFFFFF;fontSize=14;whiteSpace=wrap;movable=1;resizable=1;rotatable=1;deletable=1;editable=1;locked=0;connectable=1;" parent="25" vertex="1">
                    <mxGeometry width="105.99971512260032" height="40" as="geometry"/>
                </mxCell>
                <mxCell id="27" value="" style="strokeWidth=1;html=1;shadow=0;dashed=0;shape=mxgraph.android.rrect;rSize=0;fillColor=#444444;strokeColor=none;movable=1;resizable=1;rotatable=1;deletable=1;editable=1;locked=0;connectable=1;" parent="25" vertex="1">
                    <mxGeometry x="0.0028487739969868925" y="43" width="1059.9971512260029" height="20" as="geometry"/>
                </mxCell>
                <mxCell id="28" value="" style="strokeWidth=1;html=1;shadow=0;dashed=0;shape=mxgraph.android.anchor;fontStyle=1;fontColor=#ffffff;movable=1;resizable=1;rotatable=1;deletable=1;editable=1;locked=0;connectable=1;" parent="27" vertex="1">
                    <mxGeometry x="21.840600643392914" width="65.72564753618376" height="20" as="geometry"/>
                </mxCell>
                <mxCell id="29" value="Bike Test RFP" style="strokeWidth=1;html=1;shadow=0;dashed=0;shape=mxgraph.android.anchor;fontStyle=0;fontColor=#808080;strokeColor=#000000;movable=1;resizable=1;rotatable=1;deletable=1;editable=1;locked=0;connectable=1;" parent="27" vertex="1">
                    <mxGeometry x="-0.002847125649751092" width="182.27342317821052" height="20" as="geometry"/>
                </mxCell>
                <mxCell id="30" value="Project 2" style="strokeWidth=1;html=1;shadow=0;dashed=0;shape=mxgraph.android.anchor;fontStyle=0;fontColor=#808080;strokeColor=#000000;movable=1;resizable=1;rotatable=1;deletable=1;editable=1;locked=0;connectable=1;" parent="27" vertex="1">
                    <mxGeometry x="173.9771528743503" width="182.27342317821052" height="20" as="geometry"/>
                </mxCell>
                <mxCell id="31" value="" style="shape=mxgraph.sysml.x;fontColor=#FFFFFF;strokeColor=#FFFFFF;aspect=fixed;" parent="27" vertex="1">
                    <mxGeometry x="194.99715122600298" y="5" width="10" height="10" as="geometry"/>
                </mxCell>
                <mxCell id="32" value="" style="shape=mxgraph.sysml.x;fontColor=#FFFFFF;strokeColor=#FFFFFF;aspect=fixed;" parent="27" vertex="1">
                    <mxGeometry x="368.997151226003" y="5" width="10" height="10" as="geometry"/>
                </mxCell>
                <mxCell id="33" value="Structures" style="html=1;shadow=0;dashed=0;shape=mxgraph.bootstrap.rect;fillColor=none;strokeColor=none;fontColor=#808080;spacingRight=30;whiteSpace=wrap;movable=1;resizable=1;rotatable=1;deletable=1;editable=1;locked=0;connectable=1;" parent="25" vertex="1">
                    <mxGeometry x="105.99971512260032" width="119.24967951292534" height="40" as="geometry"/>
                </mxCell>
                <mxCell id="34" value="" style="strokeWidth=1;html=1;shadow=0;dashed=0;shape=mxgraph.android.rrect;rSize=0;fillColor=#FF0000;strokeColor=none;movable=1;resizable=1;rotatable=1;deletable=1;editable=1;locked=0;connectable=1;" parent="25" vertex="1">
                    <mxGeometry x="0.0028487739970159964" y="40" width="100" height="2" as="geometry"/>
                </mxCell>
                <mxCell id="35" value="" style="shape=image;verticalLabelPosition=bottom;labelBackgroundColor=default;verticalAlign=top;aspect=fixed;imageAspect=0;image=data:image/svg+xml,PHN2ZyB4bWxucz0iaHR0cDovL3d3dy53My5vcmcvMjAwMC9zdmciIHZpZXdCb3g9IjAgMCA1MTIgNTEyIj48cGF0aCBkPSJNNDA2LjUgMzk5LjZDMzg3LjQgMzUyLjkgMzQxLjUgMzIwIDI4OCAzMjBsLTY0IDBjLTUzLjUgMC05OS40IDMyLjktMTE4LjUgNzkuNkM2OS45IDM2Mi4yIDQ4IDMxMS43IDQ4IDI1NkM0OCAxNDEuMSAxNDEuMSA0OCAyNTYgNDhzMjA4IDkzLjEgMjA4IDIwOGMwIDU1LjctMjEuOSAxMDYuMi01Ny41IDE0My42em0tNDAuMSAzMi43QzMzNC40IDQ1Mi40IDI5Ni42IDQ2NCAyNTYgNDY0cy03OC40LTExLjYtMTEwLjUtMzEuN2M3LjMtMzYuNyAzOS43LTY0LjMgNzguNS02NC4zbDY0IDBjMzguOCAwIDcxLjIgMjcuNiA3OC41IDY0LjN6TTI1NiA1MTJBMjU2IDI1NiAwIDEgMCAyNTYgMGEyNTYgMjU2IDAgMSAwIDAgNTEyem0wLTI3MmE0MCA0MCAwIDEgMSAwLTgwIDQwIDQwIDAgMSAxIDAgODB6bS04OC00MGE4OCA4OCAwIDEgMCAxNzYgMCA4OCA4OCAwIDEgMCAtMTc2IDB6IiBmaWxsPSIjOTk5OTk5Ii8+PC9zdmc+;" parent="25" vertex="1">
                    <mxGeometry x="985" y="12.5" width="20" height="20" as="geometry"/>
                </mxCell>
                <mxCell id="36" value="" style="shape=image;verticalLabelPosition=bottom;labelBackgroundColor=default;verticalAlign=top;aspect=fixed;imageAspect=0;image=data:image/svg+xml,PHN2ZyB4bWxucz0iaHR0cDovL3d3dy53My5vcmcvMjAwMC9zdmciIHZpZXdCb3g9IjAgMCA1MTIgNTEyIj48cGF0aCBkPSJNMzc3LjkgMTA1LjlMNTAwLjcgMjI4LjdjNy4yIDcuMiAxMS4zIDE3LjEgMTEuMyAyNy4zcy00LjEgMjAuMS0xMS4zIDI3LjNMMzc3LjkgNDA2LjFjLTYuNCA2LjQtMTUgOS45LTI0IDkuOWMtMTguNyAwLTMzLjktMTUuMi0zMy45LTMzLjlsMC02Mi4xLTEyOCAwYy0xNy43IDAtMzItMTQuMy0zMi0zMmwwLTY0YzAtMTcuNyAxNC4zLTMyIDMyLTMybDEyOCAwIDAtNjIuMWMwLTE4LjcgMTUuMi0zMy45IDMzLjktMzMuOWM5IDAgMTcuNiAzLjYgMjQgOS45ek0xNjAgOTZMOTYgOTZjLTE3LjcgMC0zMiAxNC4zLTMyIDMybDAgMjU2YzAgMTcuNyAxNC4zIDMyIDMyIDMybDY0IDBjMTcuNyAwIDMyIDE0LjMgMzIgMzJzLTE0LjMgMzItMzIgMzJsLTY0IDBjLTUzIDAtOTYtNDMtOTYtOTZMMCAxMjhDMCA3NSA0MyAzMiA5NiAzMmw2NCAwYzE3LjcgMCAzMiAxNC4zIDMyIDMycy0xNC4zIDMyLTMyIDMyeiIgZmlsbD0iIzk5OTk5OSIvPjwvc3ZnPg==;" parent="25" vertex="1">
                    <mxGeometry x="1025" y="12.5" width="20" height="20" as="geometry"/>
                </mxCell>
                <mxCell id="37" value="" style="shape=table;startSize=0;container=1;collapsible=0;childLayout=tableLayout;fontSize=13;align=left;spacingLeft=5;spacing=0;" parent="1" vertex="1">
                    <mxGeometry x="1180" y="3446.5" width="790" height="90" as="geometry"/>
                </mxCell>
                <mxCell id="38" value="" style="shape=tableRow;horizontal=0;startSize=0;swimlaneHead=0;swimlaneBody=0;strokeColor=inherit;top=0;left=0;bottom=0;right=0;collapsible=0;dropTarget=0;fillColor=none;points=[[0,0.5],[1,0.5]];portConstraint=eastwest;fontSize=13;align=left;spacingLeft=5;spacing=0;" parent="37" vertex="1">
                    <mxGeometry width="790" height="30" as="geometry"/>
                </mxCell>
                <mxCell id="39" style="shape=partialRectangle;html=1;whiteSpace=wrap;connectable=0;strokeColor=inherit;overflow=hidden;fillColor=#660000;top=0;left=0;bottom=0;right=0;pointerEvents=1;fontSize=13;align=left;spacingLeft=25;spacing=0;fontColor=#FFFFFF;fontStyle=1" parent="38" vertex="1">
                    <mxGeometry width="25" height="30" as="geometry">
                        <mxRectangle width="25" height="30" as="alternateBounds"/>
                    </mxGeometry>
                </mxCell>
                <mxCell id="40" value="Structure" style="shape=partialRectangle;html=1;whiteSpace=wrap;connectable=0;strokeColor=inherit;overflow=hidden;fillColor=#660000;top=0;left=0;bottom=0;right=0;pointerEvents=1;fontSize=13;align=left;spacingLeft=25;spacing=0;fontColor=#FFFFFF;fontStyle=1" parent="38" vertex="1">
                    <mxGeometry x="25" width="145" height="30" as="geometry">
                        <mxRectangle width="145" height="30" as="alternateBounds"/>
                    </mxGeometry>
                </mxCell>
                <mxCell id="41" value="Description" style="shape=partialRectangle;html=1;whiteSpace=wrap;connectable=0;strokeColor=inherit;overflow=hidden;fillColor=#660000;top=0;left=0;bottom=0;right=0;pointerEvents=1;fontSize=13;align=left;spacingLeft=5;spacing=0;fontColor=#FFFFFF;fontStyle=1" parent="38" vertex="1">
                    <mxGeometry x="170" width="190" height="30" as="geometry">
                        <mxRectangle width="190" height="30" as="alternateBounds"/>
                    </mxGeometry>
                </mxCell>
                <mxCell id="42" value="Shared With" style="shape=partialRectangle;html=1;whiteSpace=wrap;connectable=0;strokeColor=inherit;overflow=hidden;fillColor=#660000;top=0;left=0;bottom=0;right=0;pointerEvents=1;fontSize=13;align=left;spacingLeft=5;spacing=0;fontColor=#FFFFFF;fontStyle=1" parent="38" vertex="1">
                    <mxGeometry x="360" width="110" height="30" as="geometry">
                        <mxRectangle width="110" height="30" as="alternateBounds"/>
                    </mxGeometry>
                </mxCell>
                <mxCell id="43" value="Created" style="shape=partialRectangle;html=1;whiteSpace=wrap;connectable=0;strokeColor=inherit;overflow=hidden;fillColor=#660000;top=0;left=0;bottom=0;right=0;pointerEvents=1;fontSize=13;align=left;spacingLeft=5;spacing=0;fontColor=#FFFFFF;fontStyle=1" parent="38" vertex="1">
                    <mxGeometry x="470" width="140" height="30" as="geometry">
                        <mxRectangle width="140" height="30" as="alternateBounds"/>
                    </mxGeometry>
                </mxCell>
                <mxCell id="44" value="Updated" style="shape=partialRectangle;html=1;whiteSpace=wrap;connectable=0;strokeColor=inherit;overflow=hidden;fillColor=#660000;top=0;left=0;bottom=0;right=0;pointerEvents=1;fontSize=13;align=left;spacingLeft=5;spacing=0;fontColor=#FFFFFF;fontStyle=1" parent="38" vertex="1">
                    <mxGeometry x="610" width="180" height="30" as="geometry">
                        <mxRectangle width="180" height="30" as="alternateBounds"/>
                    </mxGeometry>
                </mxCell>
                <mxCell id="45" value="" style="shape=tableRow;horizontal=0;startSize=0;swimlaneHead=0;swimlaneBody=0;strokeColor=inherit;top=0;left=0;bottom=0;right=0;collapsible=0;dropTarget=0;fillColor=none;points=[[0,0.5],[1,0.5]];portConstraint=eastwest;fontSize=13;align=left;spacingLeft=5;spacing=0;" parent="37" vertex="1">
                    <mxGeometry y="30" width="790" height="30" as="geometry"/>
                </mxCell>
                <mxCell id="46" style="shape=partialRectangle;html=1;whiteSpace=wrap;connectable=0;strokeColor=inherit;overflow=hidden;fillColor=none;top=0;left=0;bottom=0;right=0;pointerEvents=1;fontSize=13;align=left;spacingLeft=64;spacing=0;" parent="45" vertex="1">
                    <mxGeometry width="25" height="30" as="geometry">
                        <mxRectangle width="25" height="30" as="alternateBounds"/>
                    </mxGeometry>
                </mxCell>
                <mxCell id="47" value="Bike Test RFP" style="shape=partialRectangle;html=1;whiteSpace=wrap;connectable=0;strokeColor=inherit;overflow=hidden;fillColor=none;top=0;left=0;bottom=0;right=0;pointerEvents=1;fontSize=13;align=left;spacingLeft=15;spacing=0;" parent="45" vertex="1">
                    <mxGeometry x="25" width="145" height="30" as="geometry">
                        <mxRectangle width="145" height="30" as="alternateBounds"/>
                    </mxGeometry>
                </mxCell>
                <mxCell id="48" value="First Project" style="shape=partialRectangle;html=1;whiteSpace=wrap;connectable=0;strokeColor=inherit;overflow=hidden;fillColor=none;top=0;left=0;bottom=0;right=0;pointerEvents=1;fontSize=13;align=left;spacingLeft=5;spacing=0;" parent="45" vertex="1">
                    <mxGeometry x="170" width="190" height="30" as="geometry">
                        <mxRectangle width="190" height="30" as="alternateBounds"/>
                    </mxGeometry>
                </mxCell>
                <mxCell id="49" style="shape=partialRectangle;html=1;whiteSpace=wrap;connectable=0;strokeColor=inherit;overflow=hidden;fillColor=none;top=0;left=0;bottom=0;right=0;pointerEvents=1;fontSize=13;align=left;spacingLeft=5;spacing=0;" parent="45" vertex="1">
                    <mxGeometry x="360" width="110" height="30" as="geometry">
                        <mxRectangle width="110" height="30" as="alternateBounds"/>
                    </mxGeometry>
                </mxCell>
                <mxCell id="50" value="dd-mm-yy hh:mm" style="shape=partialRectangle;html=1;whiteSpace=wrap;connectable=0;strokeColor=inherit;overflow=hidden;fillColor=none;top=0;left=0;bottom=0;right=0;pointerEvents=1;fontSize=13;align=left;spacingLeft=5;spacing=0;" parent="45" vertex="1">
                    <mxGeometry x="470" width="140" height="30" as="geometry">
                        <mxRectangle width="140" height="30" as="alternateBounds"/>
                    </mxGeometry>
                </mxCell>
                <mxCell id="51" value="dd-mm-yy hh:mm" style="shape=partialRectangle;html=1;whiteSpace=wrap;connectable=0;strokeColor=inherit;overflow=hidden;fillColor=none;top=0;left=0;bottom=0;right=0;pointerEvents=1;fontSize=13;align=left;spacingLeft=5;spacing=0;" parent="45" vertex="1">
                    <mxGeometry x="610" width="180" height="30" as="geometry">
                        <mxRectangle width="180" height="30" as="alternateBounds"/>
                    </mxGeometry>
                </mxCell>
                <mxCell id="52" value="" style="shape=tableRow;horizontal=0;startSize=0;swimlaneHead=0;swimlaneBody=0;strokeColor=inherit;top=0;left=0;bottom=0;right=0;collapsible=0;dropTarget=0;fillColor=none;points=[[0,0.5],[1,0.5]];portConstraint=eastwest;fontSize=13;align=left;spacingLeft=5;spacing=0;" parent="37" vertex="1">
                    <mxGeometry y="60" width="790" height="30" as="geometry"/>
                </mxCell>
                <mxCell id="53" style="shape=partialRectangle;html=1;whiteSpace=wrap;connectable=0;strokeColor=inherit;overflow=hidden;fillColor=none;top=0;left=0;bottom=0;right=0;pointerEvents=1;fontSize=13;align=left;spacingLeft=64;spacing=0;" parent="52" vertex="1">
                    <mxGeometry width="25" height="30" as="geometry">
                        <mxRectangle width="25" height="30" as="alternateBounds"/>
                    </mxGeometry>
                </mxCell>
                <mxCell id="54" value="Project 2" style="shape=partialRectangle;html=1;whiteSpace=wrap;connectable=0;strokeColor=inherit;overflow=hidden;fillColor=none;top=0;left=0;bottom=0;right=0;pointerEvents=1;fontSize=13;align=left;spacingLeft=15;spacing=0;" parent="52" vertex="1">
                    <mxGeometry x="25" width="145" height="30" as="geometry">
                        <mxRectangle width="145" height="30" as="alternateBounds"/>
                    </mxGeometry>
                </mxCell>
                <mxCell id="55" value="Another Project Structure" style="shape=partialRectangle;html=1;whiteSpace=wrap;connectable=0;strokeColor=inherit;overflow=hidden;fillColor=none;top=0;left=0;bottom=0;right=0;pointerEvents=1;fontSize=13;align=left;spacingLeft=5;spacing=0;" parent="52" vertex="1">
                    <mxGeometry x="170" width="190" height="30" as="geometry">
                        <mxRectangle width="190" height="30" as="alternateBounds"/>
                    </mxGeometry>
                </mxCell>
                <mxCell id="56" style="shape=partialRectangle;html=1;whiteSpace=wrap;connectable=0;strokeColor=inherit;overflow=hidden;fillColor=none;top=0;left=0;bottom=0;right=0;pointerEvents=1;fontSize=13;align=left;spacingLeft=5;spacing=0;" parent="52" vertex="1">
                    <mxGeometry x="360" width="110" height="30" as="geometry">
                        <mxRectangle width="110" height="30" as="alternateBounds"/>
                    </mxGeometry>
                </mxCell>
                <mxCell id="57" value="dd-mm-yy hh:mm" style="shape=partialRectangle;html=1;whiteSpace=wrap;connectable=0;strokeColor=inherit;overflow=hidden;fillColor=none;top=0;left=0;bottom=0;right=0;pointerEvents=1;fontSize=13;align=left;spacingLeft=5;spacing=0;" parent="52" vertex="1">
                    <mxGeometry x="470" width="140" height="30" as="geometry">
                        <mxRectangle width="140" height="30" as="alternateBounds"/>
                    </mxGeometry>
                </mxCell>
                <mxCell id="58" value="dd-mm-yy hh:mm" style="shape=partialRectangle;html=1;whiteSpace=wrap;connectable=0;strokeColor=inherit;overflow=hidden;fillColor=none;top=0;left=0;bottom=0;right=0;pointerEvents=1;fontSize=13;align=left;spacingLeft=5;spacing=0;" parent="52" vertex="1">
                    <mxGeometry x="610" width="180" height="30" as="geometry">
                        <mxRectangle width="180" height="30" as="alternateBounds"/>
                    </mxGeometry>
                </mxCell>
                <mxCell id="59" value="&lt;h1 style=&quot;margin-top: 0px;&quot;&gt;Inventory&lt;/h1&gt;" style="text;html=1;whiteSpace=wrap;overflow=hidden;rounded=0;" parent="1" vertex="1">
                    <mxGeometry x="1130" y="3280" width="270" height="41" as="geometry"/>
                </mxCell>
                <mxCell id="60" value="" style="rounded=0;whiteSpace=wrap;html=1;strokeColor=#660000;aspect=fixed;" parent="1" vertex="1">
                    <mxGeometry x="1187" y="3425.5" width="10" height="10" as="geometry"/>
                </mxCell>
                <mxCell id="61" value="" style="rounded=0;whiteSpace=wrap;html=1;strokeColor=#660000;aspect=fixed;" parent="1" vertex="1">
                    <mxGeometry x="1187" y="3487" width="10" height="10" as="geometry"/>
                </mxCell>
                <mxCell id="62" value="" style="rounded=0;whiteSpace=wrap;html=1;strokeColor=#660000;aspect=fixed;" parent="1" vertex="1">
                    <mxGeometry x="1187" y="3518.5" width="10" height="10" as="geometry"/>
                </mxCell>
                <mxCell id="63" value="Action" style="html=1;shadow=0;dashed=0;shape=mxgraph.bootstrap.rrect;rSize=5;strokeColor=none;strokeWidth=1;fillColor=#660000;fontColor=#ffffff;whiteSpace=wrap;align=left;verticalAlign=middle;fontStyle=0;fontSize=12;spacingLeft=10;spacingRight=20;" parent="1" vertex="1">
                    <mxGeometry x="1220" y="3416.5" width="125" height="25" as="geometry"/>
                </mxCell>
                <mxCell id="64" value="" style="shape=triangle;direction=south;fillColor=#ffffff;strokeColor=none;perimeter=none;" parent="63" vertex="1">
                    <mxGeometry x="1" y="0.5" width="10" height="5" relative="1" as="geometry">
                        <mxPoint x="-17" y="-2.5" as="offset"/>
                    </mxGeometry>
                </mxCell>
                <mxCell id="65" value="&lt;font style=&quot;font-size: 10px;&quot;&gt;DG&lt;/font&gt;" style="rounded=1;whiteSpace=wrap;html=1;arcSize=50;strokeColor=none;strokeWidth=1;fillColor=#4C0099;fontColor=#FFFFFF;whiteSpace=wrap;align=left;verticalAlign=middle;spacingLeft=0;fontStyle=1;fontSize=10;spacing=10;" parent="1" vertex="1">
                    <mxGeometry x="1560" y="3483.5" width="33" height="17" as="geometry"/>
                </mxCell>
                <mxCell id="66" value="&lt;font style=&quot;font-size: 10px;&quot;&gt;LM&lt;/font&gt;" style="rounded=1;whiteSpace=wrap;html=1;arcSize=50;strokeColor=none;strokeWidth=1;fillColor=#4D4D4D;fontColor=#FFFFFF;whiteSpace=wrap;align=left;verticalAlign=middle;spacingLeft=0;fontStyle=1;fontSize=10;spacing=10;" parent="1" vertex="1">
                    <mxGeometry x="1597" y="3483.5" width="33" height="17" as="geometry"/>
                </mxCell>
                <mxCell id="67" value="" style="shape=table;startSize=0;container=1;collapsible=0;childLayout=tableLayout;fontSize=16;" parent="1" vertex="1">
                    <mxGeometry x="1175" y="3880" width="970" height="290" as="geometry"/>
                </mxCell>
                <mxCell id="68" value="" style="shape=tableRow;horizontal=0;startSize=0;swimlaneHead=0;swimlaneBody=0;strokeColor=inherit;top=0;left=0;bottom=0;right=0;collapsible=0;dropTarget=0;fillColor=none;points=[[0,0.5],[1,0.5]];portConstraint=eastwest;fontSize=16;" parent="67" vertex="1">
                    <mxGeometry width="970" height="23" as="geometry"/>
                </mxCell>
                <mxCell id="69" value="" style="shape=partialRectangle;html=1;whiteSpace=wrap;connectable=0;strokeColor=inherit;overflow=hidden;fillColor=none;top=0;left=0;bottom=0;right=0;pointerEvents=1;fontSize=16;align=right;spacingLeft=5;spacingRight=5;fontStyle=1" parent="68" vertex="1">
                    <mxGeometry width="195" height="23" as="geometry">
                        <mxRectangle width="195" height="23" as="alternateBounds"/>
                    </mxGeometry>
                </mxCell>
                <mxCell id="70" value="Instance" style="shape=partialRectangle;html=1;whiteSpace=wrap;connectable=0;strokeColor=inherit;overflow=hidden;fillColor=none;top=0;left=0;bottom=0;right=0;pointerEvents=1;fontSize=16;align=left;spacingLeft=5;spacingRight=5;fontStyle=1" parent="68" vertex="1">
                    <mxGeometry x="195" width="193" height="23" as="geometry">
                        <mxRectangle width="193" height="23" as="alternateBounds"/>
                    </mxGeometry>
                </mxCell>
                <mxCell id="71" value="Account" style="shape=partialRectangle;html=1;whiteSpace=wrap;connectable=0;strokeColor=inherit;overflow=hidden;fillColor=none;top=0;left=0;bottom=0;right=0;pointerEvents=1;fontSize=16;align=left;spacingLeft=5;spacingRight=5;fontStyle=1" parent="68" vertex="1">
                    <mxGeometry x="388" width="195" height="23" as="geometry">
                        <mxRectangle width="195" height="23" as="alternateBounds"/>
                    </mxGeometry>
                </mxCell>
                <mxCell id="72" value="Structure" style="shape=partialRectangle;html=1;whiteSpace=wrap;connectable=0;strokeColor=inherit;overflow=hidden;fillColor=none;top=0;left=0;bottom=0;right=0;pointerEvents=1;fontSize=16;align=left;spacingLeft=5;spacingRight=5;fontStyle=1" parent="68" vertex="1">
                    <mxGeometry x="583" width="194" height="23" as="geometry">
                        <mxRectangle width="194" height="23" as="alternateBounds"/>
                    </mxGeometry>
                </mxCell>
                <mxCell id="73" value="Element" style="shape=partialRectangle;html=1;whiteSpace=wrap;connectable=0;strokeColor=inherit;overflow=hidden;fillColor=none;top=0;left=0;bottom=0;right=0;pointerEvents=1;fontSize=16;align=left;spacingLeft=5;spacingRight=5;fontStyle=1" parent="68" vertex="1">
                    <mxGeometry x="777" width="193" height="23" as="geometry">
                        <mxRectangle width="193" height="23" as="alternateBounds"/>
                    </mxGeometry>
                </mxCell>
                <mxCell id="74" value="" style="shape=tableRow;horizontal=0;startSize=0;swimlaneHead=0;swimlaneBody=0;strokeColor=inherit;top=0;left=0;bottom=0;right=0;collapsible=0;dropTarget=0;fillColor=none;points=[[0,0.5],[1,0.5]];portConstraint=eastwest;fontSize=16;" parent="67" vertex="1">
                    <mxGeometry y="23" width="970" height="44" as="geometry"/>
                </mxCell>
                <mxCell id="75" value="Tenant Admin" style="shape=partialRectangle;html=1;whiteSpace=wrap;connectable=0;strokeColor=inherit;overflow=hidden;fillColor=none;top=0;left=0;bottom=0;right=0;pointerEvents=1;fontSize=16;align=right;spacingLeft=5;spacingRight=5;fontStyle=1" parent="74" vertex="1">
                    <mxGeometry width="195" height="44" as="geometry">
                        <mxRectangle width="195" height="44" as="alternateBounds"/>
                    </mxGeometry>
                </mxCell>
                <mxCell id="76" value="Create, Delete, Update, Backup, Restore" style="shape=partialRectangle;html=1;whiteSpace=wrap;connectable=0;strokeColor=inherit;overflow=hidden;fillColor=none;top=0;left=0;bottom=0;right=0;pointerEvents=1;fontSize=16;align=left;spacingLeft=5;spacingRight=5;" parent="74" vertex="1">
                    <mxGeometry x="195" width="193" height="44" as="geometry">
                        <mxRectangle width="193" height="44" as="alternateBounds"/>
                    </mxGeometry>
                </mxCell>
                <mxCell id="77" value="Create, Read, Delete, Enable/Disable" style="shape=partialRectangle;html=1;whiteSpace=wrap;connectable=0;strokeColor=inherit;overflow=hidden;fillColor=none;top=0;left=0;bottom=0;right=0;pointerEvents=1;fontSize=16;align=left;spacingLeft=5;spacingRight=5;" parent="74" vertex="1">
                    <mxGeometry x="388" width="195" height="44" as="geometry">
                        <mxRectangle width="195" height="44" as="alternateBounds"/>
                    </mxGeometry>
                </mxCell>
                <mxCell id="78" style="shape=partialRectangle;html=1;whiteSpace=wrap;connectable=0;strokeColor=inherit;overflow=hidden;fillColor=none;top=0;left=0;bottom=0;right=0;pointerEvents=1;fontSize=16;align=left;spacingLeft=5;spacingRight=5;" parent="74" vertex="1">
                    <mxGeometry x="583" width="194" height="44" as="geometry">
                        <mxRectangle width="194" height="44" as="alternateBounds"/>
                    </mxGeometry>
                </mxCell>
                <mxCell id="79" style="shape=partialRectangle;html=1;whiteSpace=wrap;connectable=0;strokeColor=inherit;overflow=hidden;fillColor=none;top=0;left=0;bottom=0;right=0;pointerEvents=1;fontSize=16;align=left;spacingLeft=5;spacingRight=5;" parent="74" vertex="1">
                    <mxGeometry x="777" width="193" height="44" as="geometry">
                        <mxRectangle width="193" height="44" as="alternateBounds"/>
                    </mxGeometry>
                </mxCell>
                <mxCell id="80" style="shape=tableRow;horizontal=0;startSize=0;swimlaneHead=0;swimlaneBody=0;strokeColor=inherit;top=0;left=0;bottom=0;right=0;collapsible=0;dropTarget=0;fillColor=none;points=[[0,0.5],[1,0.5]];portConstraint=eastwest;fontSize=16;" parent="67" vertex="1">
                    <mxGeometry y="67" width="970" height="46" as="geometry"/>
                </mxCell>
                <mxCell id="81" value="Account Holder" style="shape=partialRectangle;html=1;whiteSpace=wrap;connectable=0;strokeColor=inherit;overflow=hidden;fillColor=none;top=0;left=0;bottom=0;right=0;pointerEvents=1;fontSize=16;align=right;spacingLeft=5;spacingRight=5;fontStyle=1" parent="80" vertex="1">
                    <mxGeometry width="195" height="46" as="geometry">
                        <mxRectangle width="195" height="46" as="alternateBounds"/>
                    </mxGeometry>
                </mxCell>
                <mxCell id="82" value="" style="shape=partialRectangle;html=1;whiteSpace=wrap;connectable=0;strokeColor=inherit;overflow=hidden;fillColor=none;top=0;left=0;bottom=0;right=0;pointerEvents=1;fontSize=16;align=left;spacingLeft=5;spacingRight=5;" parent="80" vertex="1">
                    <mxGeometry x="195" width="193" height="46" as="geometry">
                        <mxRectangle width="193" height="46" as="alternateBounds"/>
                    </mxGeometry>
                </mxCell>
                <mxCell id="83" value="Payment, Preferences" style="shape=partialRectangle;html=1;whiteSpace=wrap;connectable=0;strokeColor=inherit;overflow=hidden;fillColor=none;top=0;left=0;bottom=0;right=0;pointerEvents=1;fontSize=16;align=left;spacingLeft=5;spacingRight=5;" parent="80" vertex="1">
                    <mxGeometry x="388" width="195" height="46" as="geometry">
                        <mxRectangle width="195" height="46" as="alternateBounds"/>
                    </mxGeometry>
                </mxCell>
                <mxCell id="84" value="Create, Read, Update, Delete, Assign Owner" style="shape=partialRectangle;html=1;whiteSpace=wrap;connectable=0;strokeColor=inherit;overflow=hidden;fillColor=none;top=0;left=0;bottom=0;right=0;pointerEvents=1;fontSize=16;align=left;spacingLeft=5;spacingRight=5;" parent="80" vertex="1">
                    <mxGeometry x="583" width="194" height="46" as="geometry">
                        <mxRectangle width="194" height="46" as="alternateBounds"/>
                    </mxGeometry>
                </mxCell>
                <mxCell id="85" style="shape=partialRectangle;html=1;whiteSpace=wrap;connectable=0;strokeColor=inherit;overflow=hidden;fillColor=none;top=0;left=0;bottom=0;right=0;pointerEvents=1;fontSize=16;align=left;spacingLeft=5;spacingRight=5;" parent="80" vertex="1">
                    <mxGeometry x="777" width="193" height="46" as="geometry">
                        <mxRectangle width="193" height="46" as="alternateBounds"/>
                    </mxGeometry>
                </mxCell>
                <mxCell id="86" value="" style="shape=tableRow;horizontal=0;startSize=0;swimlaneHead=0;swimlaneBody=0;strokeColor=inherit;top=0;left=0;bottom=0;right=0;collapsible=0;dropTarget=0;fillColor=none;points=[[0,0.5],[1,0.5]];portConstraint=eastwest;fontSize=16;" parent="67" vertex="1">
                    <mxGeometry y="113" width="970" height="44" as="geometry"/>
                </mxCell>
                <mxCell id="87" value="Owner" style="shape=partialRectangle;html=1;whiteSpace=wrap;connectable=0;strokeColor=inherit;overflow=hidden;fillColor=none;top=0;left=0;bottom=0;right=0;pointerEvents=1;fontSize=16;align=right;spacingLeft=5;spacingRight=5;fontStyle=1" parent="86" vertex="1">
                    <mxGeometry width="195" height="44" as="geometry">
                        <mxRectangle width="195" height="44" as="alternateBounds"/>
                    </mxGeometry>
                </mxCell>
                <mxCell id="88" value="" style="shape=partialRectangle;html=1;whiteSpace=wrap;connectable=0;strokeColor=inherit;overflow=hidden;fillColor=none;top=0;left=0;bottom=0;right=0;pointerEvents=1;fontSize=16;align=left;spacingLeft=5;spacingRight=5;" parent="86" vertex="1">
                    <mxGeometry x="195" width="193" height="44" as="geometry">
                        <mxRectangle width="193" height="44" as="alternateBounds"/>
                    </mxGeometry>
                </mxCell>
                <mxCell id="89" value="" style="shape=partialRectangle;html=1;whiteSpace=wrap;connectable=0;strokeColor=inherit;overflow=hidden;fillColor=none;top=0;left=0;bottom=0;right=0;pointerEvents=1;fontSize=16;align=left;spacingLeft=5;spacingRight=5;" parent="86" vertex="1">
                    <mxGeometry x="388" width="195" height="44" as="geometry">
                        <mxRectangle width="195" height="44" as="alternateBounds"/>
                    </mxGeometry>
                </mxCell>
                <mxCell id="90" style="shape=partialRectangle;html=1;whiteSpace=wrap;connectable=0;strokeColor=inherit;overflow=hidden;fillColor=none;top=0;left=0;bottom=0;right=0;pointerEvents=1;fontSize=16;align=left;spacingLeft=5;spacingRight=5;" parent="86" vertex="1">
                    <mxGeometry x="583" width="194" height="44" as="geometry">
                        <mxRectangle width="194" height="44" as="alternateBounds"/>
                    </mxGeometry>
                </mxCell>
                <mxCell id="91" value="Create, Read, Update, Delete, Share, Comment" style="shape=partialRectangle;html=1;whiteSpace=wrap;connectable=0;strokeColor=inherit;overflow=hidden;fillColor=none;top=0;left=0;bottom=0;right=0;pointerEvents=1;fontSize=16;align=left;spacingLeft=5;spacingRight=5;" parent="86" vertex="1">
                    <mxGeometry x="777" width="193" height="44" as="geometry">
                        <mxRectangle width="193" height="44" as="alternateBounds"/>
                    </mxGeometry>
                </mxCell>
                <mxCell id="92" style="shape=tableRow;horizontal=0;startSize=0;swimlaneHead=0;swimlaneBody=0;strokeColor=inherit;top=0;left=0;bottom=0;right=0;collapsible=0;dropTarget=0;fillColor=none;points=[[0,0.5],[1,0.5]];portConstraint=eastwest;fontSize=16;" parent="67" vertex="1">
                    <mxGeometry y="157" width="970" height="45" as="geometry"/>
                </mxCell>
                <mxCell id="93" value="Contributor" style="shape=partialRectangle;html=1;whiteSpace=wrap;connectable=0;strokeColor=inherit;overflow=hidden;fillColor=none;top=0;left=0;bottom=0;right=0;pointerEvents=1;fontSize=16;align=right;spacingLeft=5;spacingRight=5;fontStyle=1" parent="92" vertex="1">
                    <mxGeometry width="195" height="45" as="geometry">
                        <mxRectangle width="195" height="45" as="alternateBounds"/>
                    </mxGeometry>
                </mxCell>
                <mxCell id="94" style="shape=partialRectangle;html=1;whiteSpace=wrap;connectable=0;strokeColor=inherit;overflow=hidden;fillColor=none;top=0;left=0;bottom=0;right=0;pointerEvents=1;fontSize=16;align=left;spacingLeft=5;spacingRight=5;" parent="92" vertex="1">
                    <mxGeometry x="195" width="193" height="45" as="geometry">
                        <mxRectangle width="193" height="45" as="alternateBounds"/>
                    </mxGeometry>
                </mxCell>
                <mxCell id="95" style="shape=partialRectangle;html=1;whiteSpace=wrap;connectable=0;strokeColor=inherit;overflow=hidden;fillColor=none;top=0;left=0;bottom=0;right=0;pointerEvents=1;fontSize=16;align=left;spacingLeft=5;spacingRight=5;" parent="92" vertex="1">
                    <mxGeometry x="388" width="195" height="45" as="geometry">
                        <mxRectangle width="195" height="45" as="alternateBounds"/>
                    </mxGeometry>
                </mxCell>
                <mxCell id="96" style="shape=partialRectangle;html=1;whiteSpace=wrap;connectable=0;strokeColor=inherit;overflow=hidden;fillColor=none;top=0;left=0;bottom=0;right=0;pointerEvents=1;fontSize=16;align=left;spacingLeft=5;spacingRight=5;" parent="92" vertex="1">
                    <mxGeometry x="583" width="194" height="45" as="geometry">
                        <mxRectangle width="194" height="45" as="alternateBounds"/>
                    </mxGeometry>
                </mxCell>
                <mxCell id="97" value="Create, Read, Update, Delete, Comment" style="shape=partialRectangle;html=1;whiteSpace=wrap;connectable=0;strokeColor=inherit;overflow=hidden;fillColor=none;top=0;left=0;bottom=0;right=0;pointerEvents=1;fontSize=16;align=left;spacingLeft=5;spacingRight=5;" parent="92" vertex="1">
                    <mxGeometry x="777" width="193" height="45" as="geometry">
                        <mxRectangle width="193" height="45" as="alternateBounds"/>
                    </mxGeometry>
                </mxCell>
                <mxCell id="98" style="shape=tableRow;horizontal=0;startSize=0;swimlaneHead=0;swimlaneBody=0;strokeColor=inherit;top=0;left=0;bottom=0;right=0;collapsible=0;dropTarget=0;fillColor=none;points=[[0,0.5],[1,0.5]];portConstraint=eastwest;fontSize=16;" parent="67" vertex="1">
                    <mxGeometry y="202" width="970" height="44" as="geometry"/>
                </mxCell>
                <mxCell id="99" value="Commenter" style="shape=partialRectangle;html=1;whiteSpace=wrap;connectable=0;strokeColor=inherit;overflow=hidden;fillColor=none;top=0;left=0;bottom=0;right=0;pointerEvents=1;fontSize=16;align=right;spacingLeft=5;spacingRight=5;fontStyle=1" parent="98" vertex="1">
                    <mxGeometry width="195" height="44" as="geometry">
                        <mxRectangle width="195" height="44" as="alternateBounds"/>
                    </mxGeometry>
                </mxCell>
                <mxCell id="100" style="shape=partialRectangle;html=1;whiteSpace=wrap;connectable=0;strokeColor=inherit;overflow=hidden;fillColor=none;top=0;left=0;bottom=0;right=0;pointerEvents=1;fontSize=16;align=left;spacingLeft=5;spacingRight=5;" parent="98" vertex="1">
                    <mxGeometry x="195" width="193" height="44" as="geometry">
                        <mxRectangle width="193" height="44" as="alternateBounds"/>
                    </mxGeometry>
                </mxCell>
                <mxCell id="101" style="shape=partialRectangle;html=1;whiteSpace=wrap;connectable=0;strokeColor=inherit;overflow=hidden;fillColor=none;top=0;left=0;bottom=0;right=0;pointerEvents=1;fontSize=16;align=left;spacingLeft=5;spacingRight=5;" parent="98" vertex="1">
                    <mxGeometry x="388" width="195" height="44" as="geometry">
                        <mxRectangle width="195" height="44" as="alternateBounds"/>
                    </mxGeometry>
                </mxCell>
                <mxCell id="102" style="shape=partialRectangle;html=1;whiteSpace=wrap;connectable=0;strokeColor=inherit;overflow=hidden;fillColor=none;top=0;left=0;bottom=0;right=0;pointerEvents=1;fontSize=16;align=left;spacingLeft=5;spacingRight=5;" parent="98" vertex="1">
                    <mxGeometry x="583" width="194" height="44" as="geometry">
                        <mxRectangle width="194" height="44" as="alternateBounds"/>
                    </mxGeometry>
                </mxCell>
                <mxCell id="103" value="Read, Comment" style="shape=partialRectangle;html=1;whiteSpace=wrap;connectable=0;strokeColor=inherit;overflow=hidden;fillColor=none;top=0;left=0;bottom=0;right=0;pointerEvents=1;fontSize=16;align=left;spacingLeft=5;spacingRight=5;" parent="98" vertex="1">
                    <mxGeometry x="777" width="193" height="44" as="geometry">
                        <mxRectangle width="193" height="44" as="alternateBounds"/>
                    </mxGeometry>
                </mxCell>
                <mxCell id="104" style="shape=tableRow;horizontal=0;startSize=0;swimlaneHead=0;swimlaneBody=0;strokeColor=inherit;top=0;left=0;bottom=0;right=0;collapsible=0;dropTarget=0;fillColor=none;points=[[0,0.5],[1,0.5]];portConstraint=eastwest;fontSize=16;" parent="67" vertex="1">
                    <mxGeometry y="246" width="970" height="44" as="geometry"/>
                </mxCell>
                <mxCell id="105" value="Viewer" style="shape=partialRectangle;html=1;whiteSpace=wrap;connectable=0;strokeColor=inherit;overflow=hidden;fillColor=none;top=0;left=0;bottom=0;right=0;pointerEvents=1;fontSize=16;align=right;spacingLeft=5;spacingRight=5;fontStyle=1" parent="104" vertex="1">
                    <mxGeometry width="195" height="44" as="geometry">
                        <mxRectangle width="195" height="44" as="alternateBounds"/>
                    </mxGeometry>
                </mxCell>
                <mxCell id="106" style="shape=partialRectangle;html=1;whiteSpace=wrap;connectable=0;strokeColor=inherit;overflow=hidden;fillColor=none;top=0;left=0;bottom=0;right=0;pointerEvents=1;fontSize=16;align=left;spacingLeft=5;spacingRight=5;" parent="104" vertex="1">
                    <mxGeometry x="195" width="193" height="44" as="geometry">
                        <mxRectangle width="193" height="44" as="alternateBounds"/>
                    </mxGeometry>
                </mxCell>
                <mxCell id="107" style="shape=partialRectangle;html=1;whiteSpace=wrap;connectable=0;strokeColor=inherit;overflow=hidden;fillColor=none;top=0;left=0;bottom=0;right=0;pointerEvents=1;fontSize=16;align=left;spacingLeft=5;spacingRight=5;" parent="104" vertex="1">
                    <mxGeometry x="388" width="195" height="44" as="geometry">
                        <mxRectangle width="195" height="44" as="alternateBounds"/>
                    </mxGeometry>
                </mxCell>
                <mxCell id="108" style="shape=partialRectangle;html=1;whiteSpace=wrap;connectable=0;strokeColor=inherit;overflow=hidden;fillColor=none;top=0;left=0;bottom=0;right=0;pointerEvents=1;fontSize=16;align=left;spacingLeft=5;spacingRight=5;" parent="104" vertex="1">
                    <mxGeometry x="583" width="194" height="44" as="geometry">
                        <mxRectangle width="194" height="44" as="alternateBounds"/>
                    </mxGeometry>
                </mxCell>
                <mxCell id="109" value="Read" style="shape=partialRectangle;html=1;whiteSpace=wrap;connectable=0;strokeColor=inherit;overflow=hidden;fillColor=none;top=0;left=0;bottom=0;right=0;pointerEvents=1;fontSize=16;align=left;spacingLeft=5;spacingRight=5;" parent="104" vertex="1">
                    <mxGeometry x="777" width="193" height="44" as="geometry">
                        <mxRectangle width="193" height="44" as="alternateBounds"/>
                    </mxGeometry>
                </mxCell>
                <mxCell id="110" value="Structures" style="text;html=1;strokeColor=none;fillColor=none;align=center;verticalAlign=middle;whiteSpace=wrap;rounded=0;fontColor=#999999;" vertex="1" parent="1">
                    <mxGeometry x="1140" y="3390" width="60" height="30" as="geometry"/>
                </mxCell>
            </root>
        </mxGraphModel>
    </diagram>
</mxfile>